<?xml version="1.0" encoding="UTF-8"?>
<svg version="1.1" xmlns="http://www.w3.org/2000/svg" width="500" height="500">
  <!-- Removed the white background fill -->
  <path d="M0 0 C3.66159149 3.02783349 6.99887563 6.31396666 10.31982422 9.70849609 C11.05845703 10.41490234 11.79708984 11.12130859 12.55810547 11.84912109 C23.79983325 23.28730625 30.33285732 40.76712315 30.38232422 56.64599609 C30.36649844 58.00023054 30.34745779 59.35445113 30.31982422 60.70849609 C31.59857422 60.60537109 32.87732422 60.50224609 34.19482422 60.39599609 C52.32518166 60.4729283 70.0541449 69.42949876 82.67529297 82.00537109 C83.54798828 82.89740234 84.42068359 83.78943359 85.31982422 84.70849609 C86.42777344 85.76810547 86.42777344 85.76810547 87.55810547 86.84912109 C100.55516728 100.07331603 105.57842187 118.97195511 105.56860352 137.01416016 C105.25915014 157.77202573 96.63048424 176.12509483 81.95654297 190.54492188 C77.18870548 195.03642793 72.08908799 198.59359606 66.31982422 201.70849609 C65.48322266 202.16740234 64.64662109 202.62630859 63.78466797 203.09912109 C58.25349402 205.86887939 52.61785911 207.5684803 46.63232422 209.02099609 C45.58117432 209.27852661 45.58117432 209.27852661 44.50878906 209.54125977 C39.68694007 210.62847272 35.26061039 210.85821689 30.31982422 210.70849609 C30.38169922 211.73974609 30.44357422 212.77099609 30.50732422 213.83349609 C30.44029742 232.83559302 21.57168163 250.68516067 8.50732422 264.02099609 C3.29413201 269.14390947 -2.23082573 273.22640869 -8.68017578 276.70849609 C-9.51677734 277.16740234 -10.35337891 277.62630859 -11.21533203 278.09912109 C-28.17572022 286.59210583 -48.47090038 288.65092859 -66.66455078 283.16162109 C-86.43333762 276.42891482 -102.04855415 263.33644461 -111.99267578 245.02099609 C-116.94883363 234.3885549 -120.63092427 222.49777734 -119.68017578 210.70849609 C-120.21642578 210.75490234 -120.75267578 210.80130859 -121.30517578 210.84912109 C-139.53939887 211.68885505 -157.6785469 203.01776525 -171.18798828 191.21240234 C-186.90870616 175.41776259 -194.94107918 155.6624644 -194.92895508 133.4050293 C-194.70027805 118.0770878 -189.80264713 103.98039208 -180.68017578 91.70849609 C-180.11814453 90.90798828 -179.55611328 90.10748047 -178.97705078 89.28271484 C-167.78886169 74.16925773 -150.41369315 64.55180646 -132.11767578 61.02099609 C-127.95780117 60.64282567 -123.85342662 60.62332771 -119.68017578 60.70849609 C-119.74205078 59.51224609 -119.80392578 58.31599609 -119.86767578 57.08349609 C-119.82153724 42.38837092 -114.35925394 28.38392267 -105.68017578 16.70849609 C-105.11814453 15.90798828 -104.55611328 15.10748047 -103.97705078 14.28271484 C-93.03900534 -0.49283814 -75.5264304 -10.78126762 -57.44580078 -13.83837891 C-37.12918246 -16.28311721 -16.53871687 -12.71284688 0 0 Z " fill="#402E32" transform="translate(294.68017578125,114.29150390625)"/>
  <path d="M0 0 C5.35755096 1.92063148 8.45837216 4.91674432 11 10 C11.59106487 15.68331608 11.27243416 20.14777003 8 25 C3.29669595 29.35055624 -0.47167687 30.35621669 -6.71484375 30.28515625 C-11.17320993 29.72881312 -13.94033507 27.20582561 -16.8125 23.9375 C-19.50896422 19.53800575 -19.60840848 15.00437398 -19 10 C-14.96099355 1.7666407 -8.84592308 -1.30227234 0 0 Z " fill="#FBFBFB" transform="translate(254,235)"/>
</svg>
